<?xml version="1.0" encoding="UTF-8" standalone="no"?>
<svg
   width="40"
   height="40"
   viewBox="0 0 40 40"
   version="1.1"
   id="svg5"
   sodipodi:docname="pizar-small.svg"
   xml:space="preserve"
   inkscape:version="1.4.1-rc (06eac75fbf, 2025-03-29)"
   xmlns:inkscape="http://www.inkscape.org/namespaces/inkscape"
   xmlns:sodipodi="http://sodipodi.sourceforge.net/DTD/sodipodi-0.dtd"
   xmlns="http://www.w3.org/2000/svg"
   xmlns:svg="http://www.w3.org/2000/svg"><defs
     id="defs5" /><sodipodi:namedview
     id="namedview5"
     pagecolor="#ffffff"
     bordercolor="#000000"
     borderopacity="0.25"
     inkscape:showpageshadow="2"
     inkscape:pageopacity="0.0"
     inkscape:pagecheckerboard="0"
     inkscape:deskcolor="#d1d1d1"
     inkscape:zoom="9.1375"
     inkscape:cx="20.136799"
     inkscape:cy="28.946648"
     inkscape:window-width="1614"
     inkscape:window-height="981"
     inkscape:window-x="0"
     inkscape:window-y="0"
     inkscape:window-maximized="1"
     inkscape:current-layer="svg5" /><title
     id="title1">pen-icon</title><g
     id="g6"
     transform="matrix(0.09449868,-0.03271067,0.03271067,0.09449868,1.7856955,9.1080289)"><path
       d="M 74.19,0.005 C 72.42,0.06 70.514,0.713 68.352,2.42 63.057,0.377 57.922,-0.332 53.33,3.826 46.239,2.907 43.935,4.804 42.189,7.02 40.632,6.988 30.541,5.42 25.914,12.323 14.285,10.947 10.609,19.164 14.773,26.825 c -2.375,3.677 -4.836,7.309 0.718,14.319 -1.965,3.904 -0.747,8.139 3.882,13.265 -1.222,5.488 1.18,9.36 5.486,12.378 -0.806,7.51 6.887,11.876 9.184,13.433 0.882,4.376 2.72,8.505 11.507,10.789 1.449,6.521 6.73,7.648 11.844,9.017 -16.901,9.824 -31.396,22.75 -31.297,54.466 l -2.476,4.417 c -19.379,11.785 -36.815,49.664 -9.55,80.453 1.781,9.637 4.768,16.56 7.427,24.221 3.978,30.873 29.937,45.328 36.783,47.037 10.034,7.64 20.719,14.892 35.179,19.971 13.631,14.06 28.399,19.417 43.247,19.408 0.218,0 0.439,0.003 0.657,0 14.849,0.009 29.616,-5.349 43.248,-19.408 14.459,-5.079 25.146,-12.331 35.179,-19.974 6.847,-1.709 32.806,-16.164 36.783,-47.037 2.659,-7.661 5.646,-14.584 7.427,-24.221 27.265,-30.791 9.83,-68.672 -9.551,-80.458 l -2.479,-4.416 c 0.098,-31.713 -14.396,-44.64 -31.297,-54.466 5.113,-1.369 10.395,-2.495 11.843,-9.017 8.786,-2.284 10.626,-6.413 11.507,-10.789 2.297,-1.556 9.99,-5.922 9.185,-13.433 4.306,-3.018 6.708,-6.89 5.485,-12.378 4.629,-5.125 5.848,-9.36 3.883,-13.265 5.555,-7.006 3.09,-10.639 0.719,-14.316 4.161,-7.662 0.488,-15.878 -11.145,-14.502 C 243.524,5.416 233.436,6.984 231.876,7.016 230.13,4.801 227.827,2.903 220.737,3.822 216.144,-0.335 211.01,0.374 205.714,2.416 c -6.289,-4.962 -10.45,-0.984 -15.203,0.52 -7.614,-2.488 -9.355,0.92 -13.096,2.308 -8.304,-1.754 -10.827,2.065 -14.808,6.098 l -4.63,-0.092 c -12.524,7.381 -18.746,22.41 -20.952,30.135 -2.207,-7.727 -8.414,-22.756 -20.936,-30.135 l -4.63,0.092 C 107.473,7.31 104.95,3.49 96.646,5.244 92.907,3.858 91.17,0.45 83.552,2.938 80.432,1.951 77.563,-0.101 74.184,0.004 Z"
       id="path1-7" /><path
       fill="#bc1142"
       fill-rule="evenodd"
       d="m 177.65,253.658 v -0.391 c -0.119,-20.27 -18.029,-36.609 -40.01,-36.5 -21.979,0.101 -39.709,16.621 -39.59,36.891 v 0.39 c 0.11,20.271 18.03,36.61 40.01,36.5 21.981,-0.1 39.701,-16.62 39.59,-36.89 z m -62.83,-104.84 c -16.489,-10.811 -40.26,-3.83 -53.079,15.57 -12.83,19.41 -9.86,43.9 6.64,54.7 16.49,10.811 40.25,3.84 53.08,-15.57 12.82,-19.411 9.85,-43.9 -6.641,-54.7 z m 44.511,-1.961 c -16.49,10.811 -19.47,35.301 -6.64,54.702 12.819,19.41 36.59,26.379 53.08,15.58 16.489,-10.811 19.459,-35.301 6.64,-54.702 -12.83,-19.41 -36.591,-26.379 -53.08,-15.58 z M 32.392,166.478 c -29.54,16.87 -24.41,54.411 -8.471,67.23 14.49,6.431 26.28,-72 8.471,-67.23 z m 205.769,-0.98 c -17.81,-4.77 -6.011,73.67 8.47,67.231 15.939,-12.811 21.07,-50.361 -8.47,-67.231 z m -60.5,-58.4 c -11.32,1.9 54.25,59.16 55.26,46.38 1.04,-33.32 -24.53,-51.57 -55.26,-46.38 z m -84.9,-0.98 c -30.729,-5.19 -56.289,13.069 -55.26,46.39 1.01,12.769 66.58,-44.49 55.26,-46.39 z m 44.139,-7.77 c -18.34,-0.48 -35.939,13.61 -35.979,21.78 -0.05,9.931 14.5,20.101 36.11,20.351 22.06,0.16 36.14,-8.131 36.21,-18.381 0.079,-11.61 -20.07,-23.931 -36.341,-23.75 z m 1.121,203.6 c -15.891,-0.39 -40.261,6.37 -39.961,15.03 -0.25,5.91 19.131,22.959 38.9,22.109 19.09,0.33 38.811,-16.699 38.55,-24.23 -0.039,-7.759 -21.499,-13.599 -37.489,-12.909 z m -59.06,-45.969 c -13.061,-15.16 -30.029,-24.201 -41.02,-17.51 -7.351,5.59 -8.69,24.619 1.77,43.319 15.51,22.29 37.34,24.521 46.33,19.101 9.5,-7.101 4.311,-31.201 -7.08,-44.91 z m 115.84,-4.361 c -12.32,14.43 -19.17,40.75 -10.189,49.22 8.59,6.59 31.649,5.67 48.689,-17.97 12.37,-15.88 8.221,-42.39 1.16,-49.431 -10.5,-8.119 -25.561,2.271 -39.66,18.181 z"
       clip-rule="evenodd"
       id="path2-9" /><path
       fill="#75a928"
       fill-rule="evenodd"
       d="m 49.247,32.48 c 25.851,8.78 49.17,20.491 68.71,36.6 22.939,-10.85 7.12,-38.21 -4.07,-49.07 -0.57,2.87 -1.209,4.68 -1.949,5.22 -3.641,-3.97 -6.621,-8.03 -11.311,-11.85 -0.02,2.24 1.11,4.68 -1.68,6.46 -2.52,-3.44 -5.92,-6.51 -10.44,-9.11 2.181,3.81 0.38,4.96 -0.79,6.54 -3.449,-3 -6.729,-6.04 -13.09,-8.4 1.74,2.15 4.17,4.25 1.59,6.72 -3.55,-2.25 -7.119,-4.5 -15.56,-6.1 1.899,2.15 5.84,4.3 3.45,6.46 -4.461,-1.73 -9.391,-2.99 -14.851,-3.72 2.61,2.19 4.79,4.32 2.65,6.01 -4.771,-1.49 -11.34,-3.49 -17.77,-1.76 l 4.07,4.15 c 0.45,0.56 -9.52,0.43 -16.09,0.53 2.4,3.39 4.84,6.65 6.27,12.47 -0.65,0.67 -3.91,0.29 -6.98,0 3.15,6.73 8.62,8.43 9.9,11.31 -1.93,1.48 -4.6,1.1 -7.52,0.09 2.27,4.75 7.03,8 10.79,11.85 -0.95,0.681 -2.61,1.091 -6.54,0.62 3.47,3.74 7.67,7.17 12.64,10.25 -0.88,1.04 -3.91,0.99 -6.72,1.061 4.51,4.479 10.3,6.799 15.74,9.729 -2.71,1.88 -4.65,1.44 -6.72,1.41 3.839,3.21 10.38,4.88 16.44,6.81 -1.149,1.82 -2.3,2.32 -4.771,2.83 6.42,3.61 15.621,1.96 18.211,3.801 -0.62,1.81 -2.391,2.989 -4.51,3.979 10.34,0.61 38.609,-0.38 44.029,-22.101 C 101.796,63.46 82.476,49.61 49.247,32.48 Z m 176.309,0 c -33.219,17.13 -52.539,30.98 -63.119,42.79 5.42,21.721 33.689,22.711 44.029,22.101 -2.119,-0.99 -3.889,-2.17 -4.51,-3.979 2.59,-1.841 11.791,-0.19 18.211,-3.801 -2.471,-0.51 -3.621,-1.01 -4.771,-2.83 6.061,-1.93 12.602,-3.6 16.441,-6.81 -2.07,0.03 -4.01,0.47 -6.721,-1.41 5.439,-2.931 11.23,-5.25 15.74,-9.729 -2.811,-0.07 -5.84,-0.021 -6.721,-1.061 4.971,-3.08 9.17,-6.51 12.641,-10.25 -3.93,0.471 -5.59,0.061 -6.539,-0.62 3.76,-3.851 8.52,-7.1 10.789,-11.85 -2.92,1.01 -5.59,1.39 -7.52,-0.09 1.279,-2.88 6.75,-4.58 9.9,-11.31 -3.07,0.29 -6.33,0.67 -6.98,0 1.43,-5.82 3.879,-9.09 6.279,-12.47 -6.58,-0.1 -16.549,0.03 -16.1,-0.53 l 4.07,-4.16 c -6.42,-1.73 -13,0.28 -17.77,1.77 -2.141,-1.69 0.039,-3.83 2.648,-6.01 -5.459,0.73 -10.389,1.98 -14.85,3.71 -2.379,-2.15 1.551,-4.3 3.451,-6.45 -8.441,1.6 -12.012,3.85 -15.561,6.1 -2.58,-2.47 -0.15,-4.57 1.59,-6.72 -6.359,2.36 -9.641,5.4 -13.09,8.4 -1.17,-1.58 -2.971,-2.74 -0.791,-6.54 -4.52,2.6 -7.92,5.67 -10.43,9.1 -2.799,-1.78 -1.67,-4.21 -1.68,-6.45 -4.699,3.82 -7.68,7.88 -11.32,11.85 -0.73,-0.54 -1.379,-2.35 -1.949,-5.22 -11.189,10.86 -27.01,38.221 -4.061,49.07 19.524,-16.11 42.844,-27.821 68.694,-36.601 z"
       clip-rule="evenodd"
       id="path3-8" /></g></svg>
